# xmcd
#
# Track frame offsets: 
#        150
#        16832
#        34901
#        50742
#        63855
#        76533
#        91199
#        105855
#        119710
#        136279
#        157449
#        172113
#        188661
#        204206
#        216571
#        233192
#        247223
#        261514
#        280448
#        296593
#
# Disc length: 4199 seconds
#
# Revision: 0
# Processed by: cddbd v1.5.2PL0 Copyright (c) Steve Scherf et al.
# Submitted via: ExactAudioCopy v0.99pb4
#
DISCID=2d106514
DTITLE=Deans - The Deans Collections
DYEAR=1900
DGENRE=Country
TTITLE0=Memories Are Made Of This
TTITLE1=Elvis Medley
TTITLE2=Walk Right Back
TTITLE3=Love Me Love Me
TTITLE4=Running Bear
TTITLE5=Green Door
TTITLE6=Some Girls Will
TTITLE7=Devil In Disguise
TTITLE8=Half Way To Paradise
TTITLE9=My Baby Thinks She's A Train
TTITLE10=Love Letters
TTITLE11=Little Old Wine Drinker
TTITLE12=I Knew The Bride
TTITLE13=Feeling Kinda Lonely Tonight
TTITLE14=Sweeting Nothings
TTITLE15=Got A Lot Of Living To Do
TTITLE16=I Need Your Love Tonight
TTITLE17=Jim Reaves Medley
TTITLE18=Elvis Blessed My Soul
TTITLE19=Mony Mony
EXTD=
EXTT0=
EXTT1=
EXTT2=
EXTT3=
EXTT4=
EXTT5=
EXTT6=
EXTT7=
EXTT8=
EXTT9=
EXTT10=
EXTT11=
EXTT12=
EXTT13=
EXTT14=
EXTT15=
EXTT16=
EXTT17=
EXTT18=
EXTT19=
PLAYORDER=
